<?xml version="1.0" encoding="UTF-8"?>
<svg id="Layer_1" data-name="Layer 1" xmlns="http://www.w3.org/2000/svg" xmlns:xlink="http://www.w3.org/1999/xlink" viewBox="0 0 700 180.29">
  <defs>
    <style>
      .cls-1 {
        fill: url(#linear-gradient);
      }

      .cls-1, .cls-2, .cls-3, .cls-4, .cls-5, .cls-6, .cls-7, .cls-8, .cls-9, .cls-10, .cls-11, .cls-12, .cls-13, .cls-14 {
        stroke-width: 0px;
      }

      .cls-2 {
        fill: url(#linear-gradient-6);
      }

      .cls-4 {
        fill: url(#linear-gradient-5);
      }

      .cls-5 {
        fill: #011e51;
      }

      .cls-6 {
        fill: #152069;
      }

      .cls-7 {
        fill: #fff;
      }

      .cls-15 {
        stroke: #01b2c9;
      }

      .cls-15, .cls-16 {
        fill: none;
        stroke-linecap: round;
        stroke-linejoin: round;
        stroke-width: 1.42px;
      }

      .cls-8 {
        fill: url(#linear-gradient-2);
      }

      .cls-9 {
        fill: url(#linear-gradient-7);
      }

      .cls-10 {
        fill: url(#linear-gradient-3);
      }

      .cls-11 {
        fill: #08326a;
      }

      .cls-12 {
        fill: #d1d3d4;
      }

      .cls-13 {
        fill: url(#linear-gradient-8);
      }

      .cls-16 {
        stroke: #58595b;
      }

      .cls-14 {
        fill: url(#linear-gradient-4);
      }

      .cls-domain {
        fill: #f97316;
        font-family: Arial, Helvetica, 'Segoe UI', sans-serif;
        font-size: 86px;
        font-weight: 700;
      }

      .cls-domain-dot {
        fill: #000;
        font-family: Arial, Helvetica, 'Segoe UI', sans-serif;
        font-size: 86px;
        font-weight: 700;
      }
    </style>
    <linearGradient id="linear-gradient" x1="51.75" y1="54.18" x2="102.49" y2="41.84" gradientUnits="userSpaceOnUse">
      <stop offset="0" stop-color="#0ca8e4"/>
      <stop offset="1" stop-color="#0150a8"/>
    </linearGradient>
    <linearGradient id="linear-gradient-2" x1="0" y1="103.8" x2="50.53" y2="103.8" gradientUnits="userSpaceOnUse">
      <stop offset="0" stop-color="#06b8cd"/>
      <stop offset="1" stop-color="#037da7"/>
    </linearGradient>
    <linearGradient id="linear-gradient-3" x1="25.72" y1="62.02" x2="74.9" y2="62.02" gradientUnits="userSpaceOnUse">
      <stop offset="0" stop-color="#15dbec"/>
      <stop offset="1" stop-color="#02b5e9"/>
    </linearGradient>
    <linearGradient id="linear-gradient-4" x1="324.98" y1="55.67" x2="324.98" y2="144.28" gradientUnits="userSpaceOnUse">
      <stop offset="0" stop-color="#06b8cd"/>
      <stop offset="1" stop-color="#037da7"/>
    </linearGradient>
    <linearGradient id="linear-gradient-5" x1="403.67" y1="55.67" x2="403.67" y2="144.28" xlink:href="#linear-gradient-4"/>
    <linearGradient id="linear-gradient-6" x1="455.62" y1="55.67" x2="455.62" y2="144.28" xlink:href="#linear-gradient-4"/>
    <linearGradient id="linear-gradient-7" x1="372.93" y1="55.67" x2="372.93" y2="144.28" xlink:href="#linear-gradient-4"/>
    <linearGradient id="linear-gradient-8" x1="372.93" y1="55.67" x2="372.93" y2="144.28" xlink:href="#linear-gradient-4"/>
  </defs>
  <path class="cls-12" d="m87.66,0h-18.67c-7.84,0-14.2,7.08-14.2,15.82v53.8c0,4.58,17.5-8.94,34.12-14.03-.79-1.56-1.25-3.35-1.25-5.27V0Z"/>
  <g>
    <path class="cls-6" d="m118.52,37.15c-3.95-4.27-12.41-6.43-17.75-6.5h4.45c5.71,0,10.88,2.58,14.63,6.75s6.06,9.93,6.06,16.29v35.12s0,35.12,0,35.12c0,6.36-2.32,12.12-6.06,16.29-3.74,4.17-8.91,6.75-14.63,6.75h-5.03V48.82s21.95-7.77,21.95-7.77l-3.61-3.9Z"/>
    <path class="cls-11" d="m100.77,30.64h-.58c.19,0,.38,0,.58,0Z"/>
    <path class="cls-1" d="m95.08,13.47l-3.82,4.38-18.14,20.82-17.79,20.42,3.26,3.74,14.66,16.82,32.75-37.58v-18.9s-6.94-14.26-10.91-9.7Z"/>
    <path class="cls-11" d="m100.77,30.64c5.35.07,13.8,2.23,17.75,6.5l3.61,3.9-21.95,12.51v-22.91h.58Z"/>
  </g>
  <path class="cls-8" d="m25.13,30.64h-4.45c-5.71,0-10.88,2.36-14.63,6.17S0,45.88,0,51.7v104.22c0,5.81,2.32,11.08,6.06,14.89s8.91,6.17,14.63,6.17h5.03V30.64h-.58Z"/>
  <path class="cls-10" d="m74.9,77.76l-1.65,1.89-7.85,9.01c-5.51,6.32-14.62,6.32-20.14,0l-19.55-22.43V30.64c2.91,0,6.94,2.42,10.91,6.99l18.7,21.46,3.26,3.74,10.49,12.04s3.75,3.87,5.81,2.89Z"/>
  <g>
    <path class="cls-7" d="m97.28,60.52c-3.26,0-6.3-1.98-7.92-5.17-.78-1.54-1.19-3.28-1.19-5.04V.5h3.22l34.01,38.79v21.23h-28.12Z"/>
    <path class="cls-5" d="m91.16,1l26.39,30.09,7.36,8.39v20.54h-27.62c-3.07,0-5.94-1.88-7.48-4.9-.75-1.47-1.14-3.13-1.14-4.81V1h2.5M91.61,0h-3.95v50.31c0,1.92.46,3.71,1.25,5.27,1.65,3.25,4.78,5.44,8.37,5.44h28.62v-21.92l-7.6-8.67L91.61,0h0Z"/>
  </g>
  <rect class="cls-5" x="94.23" y="31.45" width="12.99" height="3.47" rx="1.74" ry="1.74"/>
  <rect class="cls-5" x="94.23" y="41.29" width="27.89" height="3.47" rx="1.74" ry="1.74"/>
  <rect class="cls-5" x="94.23" y="51.13" width="21.63" height="3.47" rx="1.74" ry="1.74"/>
  <g>
    <path class="cls-6" d="m202.3,121.27c.22-1.61.34-3.25.34-4.92,0-19.64-13.02-35.56-32.66-35.56s-35.56,15.92-35.56,35.56,15.92,35.56,35.56,35.56c12.08,0,22.76-6.03,29.18-15.24l-11.3-9.24c-.84,1.35-1.84,2.59-2.97,3.7-3.61,3.55-8.56,5.75-14.03,5.75-9.53,0-17.49-6.67-19.5-15.6h50.93Zm-23.57-12.34h-27.04c2.28-7.22,9.03-12.46,17-12.46,1.42,0,2.8.18,4.13.5,0,0,0,0,0,0,1.96.46,3.79,1.25,5.44,2.3,0,0,.01,0,.02.01.36.23.71.48,1.06.74.08.06.16.11.23.17.31.24.61.49.91.75.1.09.2.18.3.27.27.25.54.51.8.78.1.11.2.22.3.33.24.27.49.54.72.82.09.11.17.23.26.34.37.49.72,1,1.04,1.52.13.22.27.43.4.65.12.22.23.45.34.68.13.26.26.52.38.79.1.22.19.45.27.67.11.29.22.57.32.87.03.09.05.18.08.26h-6.95Z"/>
    <path class="cls-6" d="m263.1,55.33v32.44c-5.76-5.4-13.22-8.67-21.37-8.67-18.24,0-33.03,16.31-33.03,36.43s14.79,36.43,33.03,36.43c8.15,0,15.61-3.26,21.37-8.67v6.43h17.14V55.33h-17.14Zm-18.63,80.23c-10.62,0-19.23-8.95-19.23-20s8.61-20,19.23-20,19.23,8.95,19.23,20-8.61,20-19.23,20Z"/>
  </g>
  <line class="cls-16" x1="93.85" y1="159.19" x2="487.79" y2="159.19"/>
  <line class="cls-16" x1="16.36" y1="159.19" x2="41.27" y2="159.19"/>
  <polyline class="cls-15" points="93.85 159.19 87.64 159.19 82.52 147.33 72.66 172.36 66.75 132.01 58.47 162.77 53.74 153.85 50.19 159.19 41.27 159.19"/>
  <g>
    <polygon class="cls-14" points="312.81 73.96 354.3 73.96 354.3 56.82 312.81 56.82 306.3 56.82 295.67 56.82 295.67 149.73 312.81 149.73 312.81 112.59 349.96 112.59 349.96 95.45 312.81 95.45 312.81 73.96"/>
    <rect class="cls-4" x="395.1" y="56.82" width="17.14" height="92.91"/>
    <path class="cls-2" d="m471.91,121.27l.15.29c.04-.1.1-.19.14-.29h17.19c.22-1.61.34-3.25.34-4.92,0-19.64-13.02-35.56-32.66-35.56s-35.56,15.92-35.56,35.56,15.92,35.56,35.56,35.56c12.08,0,22.76-6.03,29.18-15.24l-11.3-9.24c-.84,1.35-1.84,2.59-2.97,3.7-3.61,3.55-8.56,5.75-14.03,5.75-9.53,0-17.49-6.67-19.5-15.6h33.46Zm-16.13-24.8c1.42,0,2.8.18,4.13.5,0,0,0,0,0,0,1.96.46,3.79,1.25,5.44,2.3,0,0,.01,0,.02.01.36.23.71.48,1.06.74.08.06.16.11.23.17.31.24.61.49.91.75.1.09.2.18.3.27.27.25.54.51.8.78.1.11.2.22.3.33.24.27.49.54.72.82.09.11.17.23.26.34.37.49.72,1,1.04,1.52.13.22.27.43.4.65.12.22.23.45.34.68.13.26.26.52.38.79.1.22.19.45.27.67.11.29.22.57.32.87.03.09.05.18.08.26h-33.99c2.28-7.22,9.03-12.46,17-12.46Z"/>
    <g>
      <rect class="cls-9" x="364.36" y="82.07" width="17.14" height="67.66"/>
      <path class="cls-13" d="m372.93,75.1c5.55,0,10.06-4.5,10.06-10.06,0-5.55-4.5-10.06-10.06-10.06-5.55,0-10.06,4.5-10.06,10.06s4.5,10.06,10.06,10.06Z"/>
    </g>
  </g>
  <text y="140">
    <tspan class="cls-domain-dot" x="492">.</tspan><tspan class="cls-domain">my</tspan>
  </text>
  <g>
    <path class="cls-3" d="m146.23,165.31h1.58v4.78h5.73v-4.78h1.58v11.66h-1.58v-5.55h-5.73v5.55h-1.58v-11.66Z"/>
    <path class="cls-3" d="m160.12,164.81h1.44v1.83h-1.44v-1.83Zm0,3.41h1.44v8.75h-1.44v-8.75Z"/>
    <path class="cls-3" d="m172.06,168.48v1.36c-.41-.2-.83-.36-1.27-.46s-.89-.15-1.36-.15c-.71,0-1.24.11-1.6.33-.36.22-.54.54-.54.98,0,.33.13.59.38.78.25.19.77.37,1.54.55l.5.11c1.02.22,1.74.53,2.17.92.43.39.64.95.64,1.67,0,.81-.32,1.45-.96,1.93-.64.47-1.52.71-2.65.71-.47,0-.96-.05-1.47-.14-.51-.09-1.05-.23-1.61-.41v-1.48c.53.27,1.05.47,1.57.61.52.14,1.03.21,1.54.21.68,0,1.2-.12,1.56-.35.36-.23.55-.56.55-.97s-.13-.7-.4-.91c-.27-.21-.84-.41-1.73-.59l-.5-.12c-.9-.19-1.54-.47-1.94-.86-.4-.38-.59-.92-.59-1.59,0-.82.29-1.46.88-1.9.58-.45,1.41-.67,2.48-.67.53,0,1.03.04,1.5.12s.9.2,1.3.35Z"/>
    <path class="cls-3" d="m178.15,165.73v2.48h2.97v1.12h-2.97v4.74c0,.71.1,1.16.3,1.36.2.2.59.3,1.19.3h1.48v1.22h-1.48c-1.1,0-1.87-.21-2.29-.62-.42-.41-.63-1.16-.63-2.26v-4.75h-1.06v-1.12h1.06v-2.48h1.44Z"/>
    <path class="cls-3" d="m188.3,168.01c1.25,0,2.23.41,2.95,1.22.71.81,1.07,1.94,1.07,3.38s-.36,2.55-1.07,3.37c-.71.82-1.7,1.23-2.95,1.23s-2.23-.41-2.95-1.23c-.71-.82-1.07-1.94-1.07-3.37s.36-2.56,1.07-3.38c.71-.81,1.7-1.22,2.95-1.22Zm0,1.22c-.77,0-1.38.3-1.83.9-.45.6-.67,1.42-.67,2.48s.22,1.87.67,2.47c.45.6,1.06.91,1.83.91s1.38-.3,1.83-.91c.45-.6.67-1.43.67-2.47s-.22-1.86-.67-2.47c-.45-.6-1.06-.91-1.83-.91Z"/>
    <path class="cls-3" d="m201.69,169.56c-.17-.09-.34-.16-.53-.2-.19-.04-.4-.06-.62-.06-.81,0-1.44.26-1.88.79-.44.53-.66,1.28-.66,2.27v4.61h-1.44v-8.75h1.44v1.36c.3-.53.7-.92,1.18-1.18.48-.25,1.08-.38,1.77-.38.09,0,.2,0,.32.02.12.01.25.03.4.06l.02,1.47Z"/>
    <path class="cls-3" d="m205.11,164.81h1.44v1.83h-1.44v-1.83Zm0,3.41h1.44v8.75h-1.44v-8.75Z"/>
    <path class="cls-3" d="m218.31,171.98v4.98h-1.44v-1.33c-.32.53-.73.92-1.22,1.18s-1.09.38-1.8.38c-.9,0-1.61-.25-2.14-.76-.53-.5-.8-1.18-.8-2.02,0-.98.33-1.72.99-2.22.66-.5,1.64-.75,2.94-.75h2.02v-.14c0-.67-.22-1.18-.65-1.54s-1.04-.54-1.84-.54c-.5,0-.99.06-1.46.18-.47.12-.93.3-1.37.54v-1.33c.53-.21,1.04-.36,1.54-.46.49-.1.98-.15,1.44-.15,1.26,0,2.2.33,2.83.98s.94,1.65.94,2.98Zm-2.86.59c-1.17,0-1.97.13-2.42.4-.45.26-.67.71-.67,1.35,0,.51.17.91.51,1.21.34.3.79.45,1.37.45.8,0,1.44-.28,1.92-.85.48-.56.72-1.31.72-2.25v-.31h-1.42Z"/>
    <path class="cls-3" d="m223.18,164.81h1.44v12.16h-1.44v-12.16Z"/>
    <path class="cls-3" d="m237.03,172.23v.7h-6.61c.06.99.36,1.75.9,2.27.54.52,1.28.78,2.23.78.55,0,1.09-.07,1.61-.2.52-.13,1.04-.34,1.55-.61v1.36c-.52.22-1.05.39-1.59.5s-1.09.17-1.64.17c-1.4,0-2.5-.41-3.32-1.22s-1.23-1.91-1.23-3.3.39-2.58,1.16-3.41c.78-.84,1.82-1.26,3.13-1.26,1.18,0,2.11.38,2.79,1.13.68.76,1.02,1.78,1.02,3.09Zm-1.44-.41c-.01-.79-.23-1.41-.66-1.89-.43-.47-1-.71-1.7-.71-.8,0-1.45.23-1.93.68-.48.46-.76,1.1-.84,1.93l5.12-.02Z"/>
    <path class="cls-3" d="m246.88,168.48v1.36c-.41-.2-.83-.36-1.27-.46s-.89-.15-1.36-.15c-.71,0-1.24.11-1.6.33-.36.22-.54.54-.54.98,0,.33.13.59.38.78.25.19.77.37,1.54.55l.5.11c1.02.22,1.74.53,2.17.92.43.39.64.95.64,1.67,0,.81-.32,1.45-.96,1.93-.64.47-1.52.71-2.65.71-.47,0-.96-.05-1.47-.14-.51-.09-1.05-.23-1.61-.41v-1.48c.53.27,1.05.47,1.57.61.52.14,1.03.21,1.54.21.68,0,1.2-.12,1.56-.35.36-.23.55-.56.55-.97s-.13-.7-.4-.91c-.27-.21-.84-.41-1.73-.59l-.5-.12c-.9-.19-1.54-.47-1.94-.86-.4-.38-.59-.92-.59-1.59,0-.82.29-1.46.88-1.9.58-.45,1.41-.67,2.48-.67.53,0,1.03.04,1.5.12s.9.2,1.3.35Z"/>
    <path class="cls-3" d="m265.37,169.9c.36-.65.8-1.12,1.3-1.43.5-.31,1.09-.46,1.77-.46.91,0,1.61.32,2.1.95.49.64.74,1.54.74,2.72v5.28h-1.44v-5.23c0-.83-.15-1.45-.45-1.86s-.75-.61-1.37-.61c-.74,0-1.33.25-1.76.74-.43.5-.65,1.17-.65,2.02v4.94h-1.44v-5.23c0-.84-.15-1.47-.45-1.87-.3-.4-.75-.6-1.37-.6-.74,0-1.33.25-1.76.74-.43.5-.65,1.17-.65,2.02v4.94h-1.44v-8.75h1.44v1.36c.33-.53.73-.92,1.19-1.18.46-.25,1-.38,1.62-.38s1.18.16,1.62.48c.45.32.78.79.98,1.41Z"/>
    <path class="cls-3" d="m283.54,172.23v.7h-6.61c.06.99.36,1.75.9,2.27.54.52,1.28.78,2.23.78.55,0,1.09-.07,1.61-.2.52-.13,1.04-.34,1.55-.61v1.36c-.52.22-1.05.39-1.59.5-.54.11-1.09.17-1.64.17-1.4,0-2.5-.41-3.32-1.22-.82-.81-1.23-1.91-1.23-3.3s.39-2.58,1.16-3.41c.78-.84,1.82-1.26,3.13-1.26,1.18,0,2.11.38,2.79,1.13.68.76,1.02,1.78,1.02,3.09Zm-1.44-.42c-.01-.78-.23-1.41-.66-1.88-.43-.47-1-.7-1.7-.7-.8,0-1.45.23-1.93.68s-.76,1.09-.84,1.91l5.12-.02Zm-1.39-7.64h1.56l-2.55,2.94h-1.2l2.19-2.94Z"/>
    <path class="cls-3" d="m293.58,169.54v-4.73h1.44v12.16h-1.44v-1.31c-.3.52-.69.91-1.15,1.16-.46.25-1.02.38-1.66.38-1.05,0-1.91-.42-2.58-1.27-.67-.84-1-1.95-1-3.33s.33-2.48,1-3.33c.67-.84,1.53-1.27,2.58-1.27.65,0,1.2.12,1.66.38.46.25.85.64,1.15,1.16Zm-4.91,3.06c0,1.05.22,1.87.66,2.47s1.04.9,1.8.9,1.36-.3,1.8-.9.66-1.43.66-2.47-.22-1.88-.66-2.48c-.44-.6-1.04-.89-1.8-.89s-1.36.3-1.8.89c-.44.6-.66,1.42-.66,2.48Z"/>
    <path class="cls-3" d="m299.89,164.81h1.44v1.83h-1.44v-1.83Zm0,3.41h1.44v8.75h-1.44v-8.75Z"/>
    <path class="cls-3" d="m312.55,168.56v1.34c-.41-.23-.81-.4-1.22-.51s-.82-.16-1.23-.16c-.94,0-1.66.29-2.18.88-.52.59-.77,1.42-.77,2.49s.26,1.89.77,2.48,1.24.89,2.18.89c.42,0,.83-.06,1.23-.17.41-.11.81-.28,1.22-.5v1.33c-.4.19-.81.33-1.24.42s-.89.14-1.37.14c-1.32,0-2.37-.41-3.15-1.24s-1.16-1.95-1.16-3.35.39-2.55,1.18-3.37c.79-.82,1.86-1.23,3.23-1.23.44,0,.87.04,1.29.13.42.09.83.23,1.23.41Z"/>
    <path class="cls-3" d="m320.36,168.01c1.25,0,2.23.41,2.95,1.22s1.07,1.94,1.07,3.38-.36,2.55-1.07,3.37c-.71.82-1.7,1.23-2.95,1.23s-2.23-.41-2.95-1.23c-.71-.82-1.07-1.94-1.07-3.37s.36-2.56,1.07-3.38,1.7-1.22,2.95-1.22Zm0,1.22c-.77,0-1.38.3-1.83.9-.45.6-.67,1.42-.67,2.48s.22,1.87.67,2.47c.45.6,1.06.91,1.83.91s1.38-.3,1.83-.91c.45-.6.67-1.43.67-2.47s-.22-1.86-.67-2.47c-.45-.6-1.06-.91-1.83-.91Z"/>
    <path class="cls-3" d="m334.24,168.48v1.36c-.41-.2-.83-.36-1.27-.46s-.89-.15-1.36-.15c-.71,0-1.24.11-1.6.33-.36.22-.54.54-.54.98,0,.33.13.59.38.78s.77.37,1.54.55l.5.11c1.02.22,1.75.53,2.17.92.43.39.64.95.64,1.67,0,.81-.32,1.45-.96,1.93-.64.47-1.52.71-2.65.71-.47,0-.96-.05-1.47-.14s-1.05-.23-1.61-.41v-1.48c.53.27,1.05.47,1.57.61.52.14,1.03.21,1.54.21.68,0,1.2-.12,1.56-.35.36-.23.55-.56.55-.97s-.13-.7-.4-.91c-.27-.21-.84-.41-1.73-.59l-.5-.12c-.9-.19-1.54-.47-1.94-.86s-.59-.92-.59-1.59c0-.82.29-1.46.88-1.9.58-.45,1.41-.67,2.48-.67.53,0,1.03.04,1.5.12s.9.2,1.3.35Z"/>
    <path class="cls-3" d="m339.29,174.98h1.64v1.34l-1.28,2.5h-1l.64-2.5v-1.34Z"/>
    <path class="cls-3" d="m359.72,169.9c.36-.65.8-1.12,1.3-1.43.5-.31,1.09-.46,1.77-.46.91,0,1.61.32,2.1.95.5.64.74,1.54.74,2.72v5.28h-1.44v-5.23c0-.83-.15-1.45-.45-1.86s-.75-.61-1.37-.61c-.74,0-1.33.25-1.76.74-.43.5-.65,1.17-.65,2.02v4.94h-1.44v-5.23c0-.84-.15-1.47-.45-1.87-.3-.4-.75-.6-1.37-.6-.74,0-1.33.25-1.76.74-.43.5-.65,1.17-.65,2.02v4.94h-1.44v-8.75h1.44v1.36c.33-.53.73-.92,1.19-1.18.46-.25,1-.38,1.62-.38s1.18.16,1.62.48c.45.32.78.79.98,1.41Z"/>
    <path class="cls-3" d="m377.89,172.23v.7h-6.61c.06.99.36,1.75.9,2.27.54.52,1.28.78,2.23.78.55,0,1.09-.07,1.61-.2.52-.13,1.04-.34,1.55-.61v1.36c-.52.22-1.05.39-1.59.5-.54.11-1.09.17-1.64.17-1.4,0-2.5-.41-3.32-1.22-.82-.81-1.23-1.91-1.23-3.3s.39-2.58,1.16-3.41c.78-.84,1.82-1.26,3.13-1.26,1.18,0,2.11.38,2.79,1.13.68.76,1.02,1.78,1.02,3.09Zm-1.44-.41c-.01-.79-.23-1.41-.66-1.89-.43-.47-1-.71-1.7-.71-.8,0-1.45.23-1.93.68-.48.46-.76,1.1-.84,1.93l5.12-.02Z"/>
    <path class="cls-3" d="m382.17,168.22h1.44v8.91c0,1.11-.21,1.92-.63,2.42s-1.11.75-2.05.75h-.55v-1.22h.39c.54,0,.91-.12,1.11-.38.2-.25.3-.78.3-1.58v-8.91Zm0-3.41h1.44v1.83h-1.44v-1.83Z"/>
    <path class="cls-3" d="m391.92,168.01c1.25,0,2.23.41,2.95,1.22.71.81,1.07,1.94,1.07,3.38s-.36,2.55-1.07,3.37c-.71.82-1.7,1.23-2.95,1.23s-2.23-.41-2.95-1.23c-.71-.82-1.07-1.94-1.07-3.37s.36-2.56,1.07-3.38c.71-.81,1.7-1.22,2.95-1.22Zm0,1.22c-.77,0-1.38.3-1.83.9-.45.6-.67,1.42-.67,2.48s.22,1.87.67,2.47c.45.6,1.06.91,1.83.91s1.38-.3,1.83-.91c.45-.6.67-1.43.67-2.47s-.22-1.86-.67-2.47c-.45-.6-1.06-.91-1.83-.91Z"/>
    <path class="cls-3" d="m405.31,169.56c-.17-.09-.34-.16-.53-.2-.19-.04-.4-.06-.62-.06-.81,0-1.44.26-1.88.79-.44.53-.66,1.28-.66,2.27v4.61h-1.44v-8.75h1.44v1.36c.3-.53.7-.92,1.18-1.18.48-.25,1.08-.38,1.77-.38.09,0,.2,0,.32.02.12.01.25.03.4.06l.02,1.47Z"/>
    <path class="cls-3" d="m422.02,168.56v1.34c-.41-.23-.81-.4-1.22-.51s-.82-.16-1.23-.16c-.94,0-1.66.29-2.18.88-.52.59-.77,1.42-.77,2.49s.26,1.89.77,2.48,1.24.89,2.18.89c.42,0,.83-.06,1.23-.17.41-.11.81-.28,1.22-.5v1.33c-.4.19-.81.33-1.24.42-.43.09-.89.14-1.37.14-1.32,0-2.37-.41-3.15-1.24-.78-.83-1.16-1.95-1.16-3.35s.39-2.55,1.18-3.37c.79-.82,1.86-1.23,3.23-1.23.44,0,.87.04,1.29.13.42.09.83.23,1.23.41Z"/>
    <path class="cls-3" d="m426.3,173.51v-5.3h1.44v5.25c0,.82.16,1.44.48,1.86.32.42.81.62,1.45.62.77,0,1.38-.25,1.84-.74.45-.49.68-1.17.68-2.02v-4.97h1.44v8.75h-1.44v-1.34c-.35.53-.76.93-1.22,1.19-.46.26-1,.39-1.61.39-1,0-1.76-.31-2.28-.94-.52-.62-.78-1.54-.78-2.75Z"/>
    <path class="cls-3" d="m438.51,164.81h1.44v1.83h-1.44v-1.83Zm0,3.41h1.44v8.75h-1.44v-8.75Z"/>
    <path class="cls-3" d="m450.63,169.54v-4.73h1.44v12.16h-1.44v-1.31c-.3.52-.68.91-1.15,1.16s-1.02.38-1.66.38c-1.05,0-1.91-.42-2.58-1.27s-1-1.95-1-3.33.33-2.48,1-3.33,1.53-1.27,2.58-1.27c.65,0,1.2.12,1.66.38s.85.64,1.15,1.16Zm-4.91,3.06c0,1.05.22,1.87.66,2.47s1.04.9,1.8.9,1.36-.3,1.8-.9.66-1.43.66-2.47-.22-1.88-.66-2.48c-.44-.6-1.04-.89-1.8-.89s-1.36.3-1.8.89c-.44.6-.66,1.42-.66,2.48Z"/>
    <path class="cls-3" d="m463.78,171.98v4.98h-1.44v-1.33c-.32.53-.73.92-1.22,1.18s-1.09.38-1.8.38c-.9,0-1.61-.25-2.14-.76-.53-.5-.8-1.18-.8-2.02,0-.98.33-1.72.99-2.22s1.64-.75,2.95-.75h2.02v-.14c0-.67-.22-1.18-.65-1.54s-1.04-.54-1.84-.54c-.5,0-.99.06-1.46.18-.47.12-.93.3-1.37.54v-1.33c.53-.21,1.04-.36,1.54-.46.5-.1.98-.15,1.45-.15,1.26,0,2.2.33,2.83.98s.94,1.65.94,2.98Zm-2.86.59c-1.17,0-1.97.13-2.42.4-.45.26-.67.71-.67,1.35,0,.51.17.91.51,1.21s.79.45,1.37.45c.8,0,1.44-.28,1.92-.85.48-.56.72-1.31.72-2.25v-.31h-1.42Z"/>
    <path class="cls-3" d="m474.42,169.54v-4.73h1.44v12.16h-1.44v-1.31c-.3.52-.68.91-1.15,1.16s-1.02.38-1.66.38c-1.05,0-1.91-.42-2.58-1.27s-1-1.95-1-3.33.33-2.48,1-3.33,1.53-1.27,2.58-1.27c.65,0,1.2.12,1.66.38s.85.64,1.15,1.16Zm-4.91,3.06c0,1.05.22,1.87.66,2.47s1.04.9,1.8.9,1.36-.3,1.8-.9.66-1.43.66-2.47-.22-1.88-.66-2.48c-.44-.6-1.04-.89-1.8-.89s-1.36.3-1.8.89c-.44.6-.66,1.42-.66,2.48Z"/>
    <path class="cls-3" d="m484.12,168.01c1.25,0,2.23.41,2.95,1.22s1.07,1.94,1.07,3.38-.36,2.55-1.07,3.37c-.71.82-1.7,1.23-2.95,1.23s-2.23-.41-2.95-1.23c-.71-.82-1.07-1.94-1.07-3.37s.36-2.56,1.07-3.38,1.7-1.22,2.95-1.22Zm0,1.22c-.77,0-1.38.3-1.83.9-.45.6-.67,1.42-.67,2.48s.22,1.87.67,2.47c.45.6,1.06.91,1.83.91s1.38-.3,1.83-.91c.45-.6.67-1.43.67-2.47s-.22-1.86-.67-2.47c-.45-.6-1.06-.91-1.83-.91Z"/>
  </g>
</svg>
